<svg xmlns="http://www.w3.org/2000/svg" xmlns:xlink="http://www.w3.org/1999/xlink" version="1.1" width="50" height="50" viewBox="0 0 256 256" xml:space="preserve">

<defs>
</defs>
<g style="stroke: none; stroke-width: 0; stroke-dasharray: none; stroke-linecap: butt; stroke-linejoin: miter; stroke-miterlimit: 10; fill: none; fill-rule: nonzero; opacity: 1;" transform="translate(1.4065934065934016 1.4065934065934016) scale(2.81 2.81)" >
	<path d="M 39.69 25.913 v -1.998 c 0 -2.932 2.377 -5.31 5.31 -5.31 h 0 c 2.932 0 5.31 2.377 5.31 5.31 v 1.998" style="stroke: none; stroke-width: 1; stroke-dasharray: none; stroke-linecap: butt; stroke-linejoin: miter; stroke-miterlimit: 10; fill: rgb(212,210,156); fill-rule: nonzero; opacity: 1;" transform=" matrix(1 0 0 1 0 0) " stroke-linecap="round" />
	<path d="M 60.469 29.23 C 55.75 27.099 50.514 25.913 45 25.913 c -20.776 0 -37.618 16.842 -37.618 37.618 h 75.235 c 0 -11.909 -5.534 -22.526 -14.171 -29.418" style="stroke: none; stroke-width: 1; stroke-dasharray: none; stroke-linecap: butt; stroke-linejoin: miter; stroke-miterlimit: 10; fill: rgb(255,233,61); fill-rule: nonzero; opacity: 1;" transform=" matrix(1 0 0 1 0 0) " stroke-linecap="round" />
	<path d="M 82.618 63.53 h 2.95 c 2.172 0 3.932 1.76 3.932 3.932 v 0 c 0 2.172 -1.76 3.932 -3.932 3.932 H 4.432 c -2.172 0 -3.932 -1.76 -3.932 -3.932 v 0 c 0 -2.172 1.76 -3.932 3.932 -3.932 h 2.95 H 82.618 z" style="stroke: none; stroke-width: 1; stroke-dasharray: none; stroke-linecap: butt; stroke-linejoin: miter; stroke-miterlimit: 10; fill: rgb(220,140,80); fill-rule: nonzero; opacity: 1;" transform=" matrix(1 0 0 1 0 0) " stroke-linecap="round" />
	<path d="M 85.567 62.78 H 83.36 c -0.22 -11.453 -5.456 -22.081 -14.445 -29.254 c -0.321 -0.257 -0.795 -0.205 -1.054 0.119 c -0.259 0.324 -0.206 0.795 0.118 1.054 c 8.63 6.887 13.647 17.088 13.867 28.082 H 38.242 c -0.414 0 -0.75 0.336 -0.75 0.75 s 0.336 0.75 0.75 0.75 h 44.375 h 2.95 c 1.755 0 3.183 1.428 3.183 3.183 c 0 1.754 -1.428 3.182 -3.183 3.182 H 4.432 c -1.754 0 -3.182 -1.428 -3.182 -3.182 c 0 -1.755 1.428 -3.183 3.182 -3.183 h 2.95 h 20.28 c 0.414 0 0.75 -0.336 0.75 -0.75 s -0.336 -0.75 -0.75 -0.75 H 8.14 C 8.541 42.796 24.922 26.663 45 26.663 c 5.282 0 10.383 1.094 15.16 3.251 c 0.378 0.171 0.821 0.003 0.992 -0.375 c 0.171 -0.377 0.003 -0.822 -0.375 -0.992 c -3.119 -1.408 -6.371 -2.38 -9.718 -2.91 v -1.722 c 0 -3.341 -2.719 -6.059 -6.06 -6.059 c -3.341 0 -6.06 2.718 -6.06 6.059 v 1.731 C 20.895 28.522 7.014 44.023 6.651 62.78 H 4.432 c -2.582 0 -4.682 2.101 -4.682 4.683 c 0 2.581 2.101 4.682 4.682 4.682 h 81.135 c 2.582 0 4.683 -2.101 4.683 -4.682 C 90.25 64.881 88.149 62.78 85.567 62.78 z M 40.44 23.915 c 0 -2.514 2.045 -4.559 4.56 -4.559 c 2.514 0 4.56 2.045 4.56 4.559 v 1.524 c -1.504 -0.177 -3.023 -0.276 -4.56 -0.276 c -1.544 0 -3.063 0.102 -4.56 0.28 V 23.915 z" style="stroke: none; stroke-width: 1; stroke-dasharray: none; stroke-linecap: butt; stroke-linejoin: miter; stroke-miterlimit: 10; fill: rgb(96,61,32); fill-rule: nonzero; opacity: 1;" transform=" matrix(1 0 0 1 0 0) " stroke-linecap="round" />
	<path d="M 17.687 52.861 c -0.096 0 -0.194 -0.019 -0.289 -0.059 c -0.382 -0.159 -0.562 -0.599 -0.402 -0.981 c 3.477 -8.307 10.395 -14.602 18.981 -17.272 c 0.396 -0.124 0.816 0.098 0.939 0.494 s -0.098 0.816 -0.494 0.939 c -8.161 2.538 -14.737 8.523 -18.042 16.42 C 18.259 52.688 17.98 52.861 17.687 52.861 z" style="stroke: none; stroke-width: 1; stroke-dasharray: none; stroke-linecap: butt; stroke-linejoin: miter; stroke-miterlimit: 10; fill: rgb(96,61,32); fill-rule: nonzero; opacity: 1;" transform=" matrix(1 0 0 1 0 0) " stroke-linecap="round" />
	<path d="M 73.183 55.216 c -0.317 0 -0.611 -0.202 -0.714 -0.521 c -1.021 -3.171 -2.573 -6.122 -4.617 -8.771 c -0.253 -0.328 -0.192 -0.799 0.136 -1.052 c 0.33 -0.254 0.8 -0.191 1.052 0.136 c 2.15 2.787 3.784 5.892 4.857 9.229 c 0.127 0.395 -0.09 0.816 -0.484 0.943 C 73.336 55.204 73.259 55.216 73.183 55.216 z" style="stroke: none; stroke-width: 1; stroke-dasharray: none; stroke-linecap: butt; stroke-linejoin: miter; stroke-miterlimit: 10; fill: rgb(96,61,32); fill-rule: nonzero; opacity: 1;" transform=" matrix(1 0 0 1 0 0) " stroke-linecap="round" />
</g>
</svg>