<?xml version="1.0" encoding="UTF-8" standalone="no"?>
<svg
   xmlns:dc="http://purl.org/dc/elements/1.1/"
   xmlns:cc="http://creativecommons.org/ns#"
   xmlns:rdf="http://www.w3.org/1999/02/22-rdf-syntax-ns#"
   xmlns:svg="http://www.w3.org/2000/svg"
   xmlns="http://www.w3.org/2000/svg"
   xmlns:sodipodi="http://sodipodi.sourceforge.net/DTD/sodipodi-0.dtd"
   xmlns:inkscape="http://www.inkscape.org/namespaces/inkscape"
   version="1.1"
   width="54.635839"
   height="32.774863"
   viewBox="0 0 254.305 152.55209"
   xml:space="preserve"
   id="svg18"
   sodipodi:docname="food-tray-icon.svg"
   inkscape:version="1.0.2 (e86c870879, 2021-01-15)"><metadata
   id="metadata22"><rdf:RDF><cc:Work
       rdf:about=""><dc:format>image/svg+xml</dc:format><dc:type
         rdf:resource="http://purl.org/dc/dcmitype/StillImage" /><dc:title></dc:title></cc:Work></rdf:RDF></metadata><sodipodi:namedview
   pagecolor="#ffffff"
   bordercolor="#666666"
   borderopacity="1"
   objecttolerance="10"
   gridtolerance="10"
   guidetolerance="10"
   inkscape:pageopacity="0"
   inkscape:pageshadow="2"
   inkscape:window-width="1280"
   inkscape:window-height="672"
   id="namedview20"
   showgrid="false"
   units="mm"
   fit-margin-top="0"
   fit-margin-left="0"
   fit-margin-right="0"
   fit-margin-bottom="0"
   inkscape:zoom="10.06"
   inkscape:cx="24.862482"
   inkscape:cy="17.860778"
   inkscape:window-x="0"
   inkscape:window-y="0"
   inkscape:window-maximized="1"
   inkscape:current-layer="svg18" />

<defs
   id="defs2">
</defs>
<g
   style="opacity:1;fill:none;fill-rule:nonzero;stroke:none;stroke-width:0;stroke-linecap:butt;stroke-linejoin:miter;stroke-miterlimit:10;stroke-dasharray:none"
   transform="matrix(2.81,0,0,2.81,0.70249999,-50.17536)"
   id="g16">
	<path
   d="m 39.69,25.913 v -1.998 c 0,-2.932 2.377,-5.31 5.31,-5.31 v 0 c 2.932,0 5.31,2.377 5.31,5.31 v 1.998"
   style="opacity:1;fill:#ded0c3;fill-rule:nonzero;stroke:none;stroke-width:1;stroke-linecap:butt;stroke-linejoin:miter;stroke-miterlimit:10;stroke-dasharray:none"
   stroke-linecap="round"
   id="path4" />
	<path
   d="M 60.469,29.23 C 55.75,27.099 50.514,25.913 45,25.913 24.224,25.913 7.382,42.755 7.382,63.531 h 75.235 c 0,-11.909 -5.534,-22.526 -14.171,-29.418"
   style="opacity:1;fill:#fff133;fill-rule:nonzero;stroke:none;stroke-width:1;stroke-linecap:butt;stroke-linejoin:miter;stroke-miterlimit:10;stroke-dasharray:none"
   stroke-linecap="round"
   id="path6" />
	<path
   d="m 82.618,63.53 h 2.95 c 2.172,0 3.932,1.76 3.932,3.932 v 0 c 0,2.172 -1.76,3.932 -3.932,3.932 H 4.432 C 2.26,71.394 0.5,69.634 0.5,67.462 v 0 C 0.5,65.29 2.26,63.53 4.432,63.53 h 2.95 z"
   style="opacity:1;fill:#dc8c50;fill-rule:nonzero;stroke:none;stroke-width:1;stroke-linecap:butt;stroke-linejoin:miter;stroke-miterlimit:10;stroke-dasharray:none"
   stroke-linecap="round"
   id="path8" />
	<path
   d="M 85.567,62.78 H 83.36 C 83.14,51.327 77.904,40.699 68.915,33.526 c -0.321,-0.257 -0.795,-0.205 -1.054,0.119 -0.259,0.324 -0.206,0.795 0.118,1.054 8.63,6.887 13.647,17.088 13.867,28.082 H 38.242 c -0.414,0 -0.75,0.336 -0.75,0.75 0,0.414 0.336,0.75 0.75,0.75 h 44.375 2.95 c 1.755,0 3.183,1.428 3.183,3.183 0,1.754 -1.428,3.182 -3.183,3.182 H 4.432 c -1.754,0 -3.182,-1.428 -3.182,-3.182 0,-1.755 1.428,-3.183 3.182,-3.183 h 2.95 20.28 c 0.414,0 0.75,-0.336 0.75,-0.75 0,-0.414 -0.336,-0.75 -0.75,-0.75 H 8.14 C 8.541,42.796 24.922,26.663 45,26.663 c 5.282,0 10.383,1.094 15.16,3.251 0.378,0.171 0.821,0.003 0.992,-0.375 0.171,-0.377 0.003,-0.822 -0.375,-0.992 -3.119,-1.408 -6.371,-2.38 -9.718,-2.91 v -1.722 c 0,-3.341 -2.719,-6.059 -6.06,-6.059 -3.341,0 -6.06,2.718 -6.06,6.059 v 1.731 C 20.895,28.522 7.014,44.023 6.651,62.78 H 4.432 c -2.582,0 -4.682,2.101 -4.682,4.683 0,2.581 2.101,4.682 4.682,4.682 h 81.135 c 2.582,0 4.683,-2.101 4.683,-4.682 0,-2.582 -2.101,-4.683 -4.683,-4.683 z M 40.44,23.915 c 0,-2.514 2.045,-4.559 4.56,-4.559 2.514,0 4.56,2.045 4.56,4.559 v 1.524 C 48.056,25.262 46.537,25.163 45,25.163 c -1.544,0 -3.063,0.102 -4.56,0.28 z"
   style="opacity:1;fill:#603d20;fill-rule:nonzero;stroke:none;stroke-width:1;stroke-linecap:butt;stroke-linejoin:miter;stroke-miterlimit:10;stroke-dasharray:none"
   stroke-linecap="round"
   id="path10" />
	<path
   d="m 17.687,52.861 c -0.096,0 -0.194,-0.019 -0.289,-0.059 -0.382,-0.159 -0.562,-0.599 -0.402,-0.981 3.477,-8.307 10.395,-14.602 18.981,-17.272 0.396,-0.124 0.816,0.098 0.939,0.494 0.123,0.396 -0.098,0.816 -0.494,0.939 -8.161,2.538 -14.737,8.523 -18.042,16.42 -0.121,0.286 -0.4,0.459 -0.693,0.459 z"
   style="opacity:1;fill:#603d20;fill-rule:nonzero;stroke:none;stroke-width:1;stroke-linecap:butt;stroke-linejoin:miter;stroke-miterlimit:10;stroke-dasharray:none"
   stroke-linecap="round"
   id="path12" />
	<path
   d="m 73.183,55.216 c -0.317,0 -0.611,-0.202 -0.714,-0.521 -1.021,-3.171 -2.573,-6.122 -4.617,-8.771 -0.253,-0.328 -0.192,-0.799 0.136,-1.052 0.33,-0.254 0.8,-0.191 1.052,0.136 2.15,2.787 3.784,5.892 4.857,9.229 0.127,0.395 -0.09,0.816 -0.484,0.943 -0.077,0.024 -0.154,0.036 -0.23,0.036 z"
   style="opacity:1;fill:#603d20;fill-rule:nonzero;stroke:none;stroke-width:1;stroke-linecap:butt;stroke-linejoin:miter;stroke-miterlimit:10;stroke-dasharray:none"
   stroke-linecap="round"
   id="path14" />
</g>
</svg>
