<svg xmlns="http://www.w3.org/2000/svg" xmlns:xlink="http://www.w3.org/1999/xlink" version="1.1" width="50" height="50" viewBox="0 0 256 256" xml:space="preserve">

<defs>
</defs>
<g style="stroke: none; stroke-width: 0; stroke-dasharray: none; stroke-linecap: butt; stroke-linejoin: miter; stroke-miterlimit: 10; fill: none; fill-rule: nonzero; opacity: 1;" transform="translate(1.4065934065934016 1.4065934065934016) scale(2.81 2.81)" >
	<path d="M 11.261 33.376 c -0.186 0 -0.372 -0.026 -0.554 -0.079 c -0.614 -0.181 -1.104 -0.65 -1.311 -1.256 L 8.463 29.31 l -2.849 0.301 c -0.632 0.061 -1.266 -0.186 -1.686 -0.67 c -0.419 -0.484 -0.578 -1.143 -0.424 -1.765 l 0.692 -2.802 l -2.559 -1.287 c -0.57 -0.291 -0.965 -0.842 -1.056 -1.476 c -0.091 -0.633 0.132 -1.274 0.597 -1.713 l 2.097 -1.983 l -1.457 -2.466 c -0.322 -0.553 -0.356 -1.23 -0.091 -1.812 c 0.266 -0.582 0.8 -1.001 1.428 -1.119 l 2.837 -0.535 L 6.1 9.119 C 6.128 8.48 6.466 7.892 7.004 7.545 C 7.543 7.2 8.218 7.136 8.812 7.376 l 2.675 1.084 l 1.639 -2.35 c 0.369 -0.522 0.971 -0.835 1.611 -0.835 c 0.64 0 1.243 0.313 1.612 0.836 l 1.664 2.358 l 2.648 -1.092 c 0.593 -0.242 1.269 -0.177 1.807 0.169 c 0.538 0.346 0.876 0.934 0.904 1.573 l 0.125 2.884 l 2.818 0.513 c 0.63 0.119 1.163 0.538 1.429 1.12 c 0.265 0.582 0.232 1.259 -0.091 1.812 L 26.2 17.941 l 2.093 1.956 c 0.465 0.439 0.688 1.08 0.597 1.713 c -0.091 0.633 -0.485 1.185 -1.056 1.476 l -2.57 1.312 l 0.703 2.777 c 0.154 0.621 -0.005 1.281 -0.424 1.765 c -0.419 0.484 -1.052 0.73 -1.686 0.67 l -2.872 -0.286 l -0.91 2.717 c -0.206 0.606 -0.697 1.075 -1.311 1.255 c -0.614 0.181 -1.28 0.05 -1.781 -0.348 l -2.261 -1.793 l -2.234 1.793 C 12.136 33.228 11.702 33.376 11.261 33.376 z M 8.488 27.33 c 0.838 0 1.587 0.527 1.862 1.336 l 0.933 2.731 l 2.226 -1.804 c 0.722 -0.572 1.73 -0.572 2.451 0 l 2.262 1.793 l 0.898 -2.721 c 0.297 -0.872 1.144 -1.42 2.062 -1.325 l 2.872 0.286 l -0.716 -2.775 c -0.221 -0.894 0.198 -1.811 1.018 -2.23 l 2.57 -1.312 l -2.102 -1.947 c -0.67 -0.633 -0.813 -1.631 -0.348 -2.427 l 1.453 -2.493 l -2.821 -0.502 c -0.906 -0.17 -1.566 -0.932 -1.605 -1.853 l -0.125 -2.883 l -2.645 1.103 c -0.857 0.345 -1.821 0.062 -2.352 -0.691 l -1.652 -2.34 l -1.641 2.341 c -0.531 0.752 -1.498 1.035 -2.351 0.691 L 8.063 9.225 l -0.095 2.864 c -0.04 0.921 -0.701 1.682 -1.605 1.853 l -2.836 0.534 l 1.469 2.461 c 0.464 0.796 0.32 1.793 -0.349 2.426 l -2.097 1.983 l 2.566 1.276 c 0.82 0.418 1.239 1.336 1.018 2.23 l -0.692 2.802 l 2.849 -0.314 C 8.356 27.333 8.423 27.33 8.488 27.33 z" style="stroke: none; stroke-width: 1; stroke-dasharray: none; stroke-linecap: butt; stroke-linejoin: miter; stroke-miterlimit: 10; fill: rgb(0,0,0); fill-rule: nonzero; opacity: 1;" transform=" matrix(1 0 0 1 0 0) " stroke-linecap="round" />
	<path d="M 14.736 26.306 c -3.849 0 -6.981 -3.131 -6.981 -6.981 s 3.131 -6.981 6.981 -6.981 s 6.981 3.131 6.981 6.981 S 18.585 26.306 14.736 26.306 z M 14.736 14.34 c -2.749 0 -4.986 2.237 -4.986 4.986 s 2.237 4.986 4.986 4.986 s 4.986 -2.237 4.986 -4.986 S 17.485 14.34 14.736 14.34 z" style="stroke: none; stroke-width: 1; stroke-dasharray: none; stroke-linecap: butt; stroke-linejoin: miter; stroke-miterlimit: 10; fill: rgb(0,0,0); fill-rule: nonzero; opacity: 1;" transform=" matrix(1 0 0 1 0 0) " stroke-linecap="round" />
	<path d="M 89.941 81.298 c -3.165 -1.843 -6.353 -2.735 -9.54 -2.688 c -3.765 -4.243 -9.996 -7.595 -17.505 -9.65 c -2.384 -11.035 -1.805 -20.704 1.986 -32.936 c 4.813 3.118 9.626 9.377 10.629 14.52 c 0.091 0.467 0.499 0.806 0.975 0.809 c 0.003 0 0.005 0 0.007 0 c 0.474 0 0.882 -0.332 0.979 -0.796 c 1.429 -6.843 0.157 -12.848 -3.187 -16.35 c 5.962 1.331 11.448 4.429 14.188 8.209 c 0.271 0.373 0.763 0.513 1.187 0.339 c 0.427 -0.174 0.68 -0.617 0.612 -1.073 c -0.707 -4.77 -2.327 -8.733 -4.695 -11.608 c 0.904 0.447 1.803 0.965 2.69 1.554 c 0.369 0.246 0.86 0.217 1.2 -0.071 c 0.34 -0.289 0.447 -0.767 0.264 -1.173 c -3.107 -6.89 -6.349 -11.102 -9.827 -12.742 c 1.1 -0.193 2.138 -0.163 3.104 0.087 c 0.442 0.116 0.901 -0.082 1.123 -0.477 c 0.223 -0.396 0.151 -0.891 -0.174 -1.208 c -6.835 -6.651 -10.721 -7.169 -17.028 -1.73 c -0.882 -3.269 -2.346 -5.526 -4.447 -6.875 c -2.642 -1.696 -6.236 -1.958 -10.982 -0.798 c -0.435 0.106 -0.746 0.489 -0.762 0.936 c -0.017 0.448 0.268 0.851 0.693 0.988 c 0.953 0.306 1.845 0.837 2.669 1.588 c -3.809 -0.478 -8.809 1.345 -15.122 5.5 c -0.372 0.245 -0.538 0.707 -0.405 1.132 c 0.132 0.426 0.518 0.714 0.976 0.703 c 1.066 -0.022 2.102 0.021 3.104 0.127 c -3.539 1.161 -7.03 3.641 -10.18 7.291 c -0.301 0.349 -0.325 0.858 -0.058 1.233 c 0.267 0.375 0.755 0.52 1.185 0.349 c 4.376 -1.743 10.736 -1.402 16.523 0.715 c -4.697 1.176 -8.989 5.572 -11.438 12.095 c -0.167 0.446 0.002 0.947 0.406 1.2 c 0.404 0.252 0.929 0.185 1.256 -0.161 c 3.758 -3.973 11.435 -6.757 17.18 -6.624 c -5.004 11.034 -5.082 20.934 -5.155 33.328 c -2.267 -0.224 -4.581 -0.354 -6.933 -0.354 c -14.891 0 -28.527 4.671 -34.963 11.922 c -3.188 -0.047 -6.375 0.844 -9.541 2.688 c -0.477 0.278 -0.639 0.891 -0.361 1.367 c 0.279 0.479 0.892 0.639 1.368 0.361 c 5.583 -3.254 11.011 -3.252 16.593 0 c 3.087 1.798 6.195 2.696 9.303 2.696 c 3.108 0 6.217 -0.898 9.303 -2.696 c 5.583 -3.254 11.01 -3.254 16.594 0 c 6.174 3.597 12.436 3.595 18.607 0 c 5.581 -3.251 11.008 -3.253 16.593 0 c 0.478 0.277 1.09 0.116 1.367 -0.361 C 90.58 82.188 90.419 81.576 89.941 81.298 z M 42.381 36.144 c 3.061 -5.215 7.548 -7.988 11.914 -7.087 c 0.484 0.098 0.971 -0.17 1.142 -0.636 c 0.17 -0.466 -0.026 -0.986 -0.463 -1.222 c -5.79 -3.142 -12.887 -4.425 -18.513 -3.531 c 3.728 -3.377 7.755 -5.059 11.585 -4.774 c 0.512 0.027 0.939 -0.295 1.049 -0.778 c 0.108 -0.483 -0.152 -0.973 -0.614 -1.152 c -1.758 -0.682 -3.653 -1.13 -5.662 -1.341 c 6.227 -3.616 10.826 -4.457 13.693 -2.501 c 0.388 0.266 0.908 0.226 1.25 -0.099 c 0.342 -0.322 0.413 -0.839 0.171 -1.242 c -0.941 -1.566 -2.018 -2.808 -3.216 -3.715 c 2.826 -0.357 5.028 -0.006 6.685 1.057 c 1.961 1.258 3.254 3.634 3.951 7.261 c 0.069 0.357 0.327 0.649 0.673 0.762 c 0.348 0.113 0.728 0.029 0.993 -0.221 c 5.562 -5.205 8.362 -5.721 13.448 -1.374 c -1.488 0.129 -3.051 0.601 -4.672 1.414 c -0.42 0.21 -0.637 0.686 -0.521 1.141 c 0.116 0.455 0.504 0.787 1.003 0.752 c 3.469 -0.15 6.902 3.055 10.226 9.443 c -1.81 -0.898 -3.649 -1.534 -5.5 -1.899 c -0.479 -0.098 -0.968 0.178 -1.135 0.645 c -0.167 0.466 0.032 0.984 0.469 1.218 c 3.386 1.814 5.89 5.388 7.229 10.237 c -4.26 -3.757 -10.923 -6.471 -17.478 -6.927 c -0.485 -0.029 -0.944 0.302 -1.048 0.79 c -0.104 0.488 0.168 0.977 0.637 1.147 c 4.245 1.546 6.587 6.325 6.36 12.447 c -2.935 -6.182 -9.235 -12.365 -14.513 -13.645 c -0.734 -0.234 -1.538 -0.389 -2.385 -0.485 c -0.028 -0.003 -0.054 -0.008 -0.082 -0.008 C 53.986 31.268 47.226 33.055 42.381 36.144 z M 54.371 67.097 c 0.073 -12.408 0.144 -22.264 5.263 -33.181 c 0.459 0.082 0.903 0.18 1.315 0.313 c 0.024 0.008 0.05 0.015 0.075 0.021 c 0.673 0.16 1.371 0.425 2.077 0.762 c -3.906 12.426 -4.61 22.279 -2.361 33.401 c -2.051 -0.479 -4.179 -0.865 -6.37 -1.147 L 54.371 67.097 z M 71.336 81.298 c -5.582 3.251 -11.01 3.253 -16.594 0 c -6.173 -3.598 -12.434 -3.596 -18.607 0 c -5.582 3.251 -11.01 3.253 -16.593 0 c -2.171 -1.265 -4.353 -2.075 -6.538 -2.45 c 6.437 -6.219 18.862 -10.161 32.435 -10.161 c 13.573 0 25.999 3.942 32.435 10.161 C 75.688 79.223 73.507 80.033 71.336 81.298 z" style="stroke: none; stroke-width: 1; stroke-dasharray: none; stroke-linecap: butt; stroke-linejoin: miter; stroke-miterlimit: 10; fill: rgb(0,0,0); fill-rule: nonzero; opacity: 1;" transform=" matrix(1 0 0 1 0 0) " stroke-linecap="round" />
</g>
</svg>